<?xml version="1.0" encoding="utf-8"?>
<!-- Generator: Adobe Illustrator 25.2.1, SVG Export Plug-In . SVG Version: 6.00 Build 0)  -->
<svg version="1.1" xmlns="http://www.w3.org/2000/svg" xmlns:xlink="http://www.w3.org/1999/xlink" x="0px" y="0px"
	 viewBox="0 0 128 128" style="enable-background:new 0 0 128 128;" xml:space="preserve">
<style type="text/css">
	.st0{fill:#FF9900;}
	.st1{fill:#575756;}
</style>
<g id="Livello_1">
</g>
<g id="_x3C_Livello_x3E_">
	<g>
		<path class="st0" d="M77.1,54.11l36.16-26.68c0,0,27.46,31.14,0.45,73.22C98.53,89.94,77.1,74.09,77.1,74.09
			S83.35,65.04,77.1,54.11z"/>
		<path class="st1" d="M64,0C28.71,0,0,28.71,0,64s28.71,64,64,64s64-28.71,64-64S99.29,0,64,0z M77.63,64
			c0,7.51-6.11,13.63-13.63,13.63c-7.51,0-13.63-6.11-13.63-13.63S56.49,50.37,64,50.37C71.51,50.37,77.63,56.49,77.63,64z
			 M80.4,54.99l32.35-24.02c6.41,9.43,10.16,20.8,10.16,33.03c0,12.29-3.79,23.72-10.25,33.17L80.37,73.05
			c1.49-2.69,2.34-5.77,2.34-9.05C82.72,60.74,81.88,57.67,80.4,54.99z M64,122.91C31.52,122.91,5.09,96.48,5.09,64
			S31.52,5.09,64,5.09c18.43,0,34.9,8.51,45.71,21.79L77.36,50.91c-3.4-3.47-8.13-5.63-13.36-5.63c-10.32,0-18.72,8.4-18.72,18.72
			S53.68,82.72,64,82.72c5.21,0,9.93-2.14,13.32-5.59l32.28,24.11C98.79,114.46,82.37,122.91,64,122.91z"/>
	</g>
</g>
</svg>
