<?xml version="1.0" encoding="utf-8"?>
<!-- Generator: Adobe Illustrator 25.2.1, SVG Export Plug-In . SVG Version: 6.00 Build 0)  -->
<svg version="1.1" xmlns="http://www.w3.org/2000/svg" xmlns:xlink="http://www.w3.org/1999/xlink" x="0px" y="0px"
	 viewBox="0 0 16 16" style="enable-background:new 0 0 16 16;" xml:space="preserve">
<style type="text/css">
	.st0{fill:#FF9900;}
	.st1{fill:#575756;}
</style>
<g id="Livello_1">
</g>
<g id="_x3C_Livello_x3E_">
	<g>
		<path class="st0" d="M9.64,6.76l4.52-3.33c0,0,3.43,3.89,0.06,9.15c-1.9-1.34-4.58-3.32-4.58-3.32S10.42,8.13,9.64,6.76z"/>
		<path class="st1" d="M8,0C3.59,0,0,3.59,0,8s3.59,8,8,8s8-3.59,8-8S12.41,0,8,0z M9.7,8c0,0.94-0.76,1.7-1.7,1.7
			C7.06,9.7,6.3,8.94,6.3,8S7.06,6.3,8,6.3C8.94,6.3,9.7,7.06,9.7,8z M10.05,6.87l4.04-3c0.8,1.18,1.27,2.6,1.27,4.13
			c0,1.54-0.47,2.96-1.28,4.15l-4.04-3.01C10.23,8.8,10.34,8.41,10.34,8C10.34,7.59,10.23,7.21,10.05,6.87z M8,15.36
			c-4.06,0-7.36-3.3-7.36-7.36S3.94,0.64,8,0.64c2.3,0,4.36,1.06,5.71,2.72l-4.04,3C9.25,5.93,8.65,5.66,8,5.66
			C6.71,5.66,5.66,6.71,5.66,8S6.71,10.34,8,10.34c0.65,0,1.24-0.27,1.67-0.7l4.04,3.01C12.35,14.31,10.3,15.36,8,15.36z"/>
	</g>
</g>
</svg>
