<?xml version="1.0" encoding="utf-8"?>
<!-- Generator: Adobe Illustrator 25.2.1, SVG Export Plug-In . SVG Version: 6.00 Build 0)  -->
<svg version="1.1" xmlns="http://www.w3.org/2000/svg" xmlns:xlink="http://www.w3.org/1999/xlink" x="0px" y="0px"
	 viewBox="0 0 24 24" style="enable-background:new 0 0 24 24;" xml:space="preserve">
<style type="text/css">
	.st0{fill:#FF9900;}
	.st1{fill:#575756;}
</style>
<g id="Livello_1">
</g>
<g id="_x3C_Livello_x3E_">
	<g>
		<path class="st0" d="M14.46,10.14l6.78-5c0,0,5.15,5.84,0.08,13.73c-2.85-2.01-6.86-4.98-6.86-4.98S15.63,12.2,14.46,10.14z"/>
		<path class="st1" d="M12,0C5.38,0,0,5.38,0,12s5.38,12,12,12s12-5.38,12-12S18.62,0,12,0z M14.56,12c0,1.41-1.15,2.56-2.56,2.56
			c-1.41,0-2.56-1.15-2.56-2.56S10.59,9.44,12,9.44C13.41,9.44,14.56,10.59,14.56,12z M15.08,10.31l6.07-4.5
			c1.2,1.77,1.9,3.9,1.9,6.19c0,2.3-0.71,4.45-1.92,6.22l-6.05-4.52c0.28-0.5,0.44-1.08,0.44-1.7
			C15.51,11.39,15.35,10.81,15.08,10.31z M12,23.05C5.91,23.05,0.95,18.09,0.95,12S5.91,0.95,12,0.95c3.45,0,6.54,1.59,8.57,4.09
			l-6.07,4.5C13.87,8.89,12.98,8.49,12,8.49c-1.94,0-3.51,1.57-3.51,3.51s1.57,3.51,3.51,3.51c0.98,0,1.86-0.4,2.5-1.05l6.05,4.52
			C18.52,21.46,15.44,23.05,12,23.05z"/>
	</g>
</g>
</svg>
