<?xml version="1.0" encoding="utf-8"?>
<!-- Generator: Adobe Illustrator 25.2.1, SVG Export Plug-In . SVG Version: 6.00 Build 0)  -->
<svg version="1.1" xmlns="http://www.w3.org/2000/svg" xmlns:xlink="http://www.w3.org/1999/xlink" x="0px" y="0px"
	 viewBox="0 0 32 32" style="enable-background:new 0 0 32 32;" xml:space="preserve">
<style type="text/css">
	.st0{fill:#FF9900;}
	.st1{fill:#575756;}
</style>
<g id="Livello_1">
</g>
<g id="_x3C_Livello_x3E_">
	<g>
		<path class="st0" d="M19.27,13.53l9.04-6.67c0,0,6.86,7.79,0.11,18.31c-3.8-2.68-9.15-6.64-9.15-6.64S20.84,16.26,19.27,13.53z"/>
		<path class="st1" d="M16,0C7.18,0,0,7.18,0,16s7.18,16,16,16s16-7.18,16-16S24.82,0,16,0z M19.41,16c0,1.88-1.53,3.41-3.41,3.41
			c-1.88,0-3.41-1.53-3.41-3.41s1.53-3.41,3.41-3.41C17.88,12.59,19.41,14.12,19.41,16z M20.1,13.75l8.09-6.01
			c1.6,2.36,2.54,5.2,2.54,8.26c0,3.07-0.95,5.93-2.56,8.29l-8.07-6.03c0.37-0.67,0.59-1.44,0.59-2.26
			C20.68,15.18,20.47,14.42,20.1,13.75z M16,30.73C7.88,30.73,1.27,24.12,1.27,16S7.88,1.27,16,1.27c4.61,0,8.73,2.13,11.43,5.45
			l-8.09,6.01c-0.85-0.87-2.03-1.41-3.34-1.41c-2.58,0-4.68,2.1-4.68,4.68s2.1,4.68,4.68,4.68c1.3,0,2.48-0.54,3.33-1.4l8.07,6.03
			C24.7,28.61,20.59,30.73,16,30.73z"/>
	</g>
</g>
</svg>
