<?xml version="1.0" encoding="utf-8"?>
<!-- Generator: Adobe Illustrator 25.2.1, SVG Export Plug-In . SVG Version: 6.00 Build 0)  -->
<svg version="1.1" xmlns="http://www.w3.org/2000/svg" xmlns:xlink="http://www.w3.org/1999/xlink" x="0px" y="0px"
	 viewBox="0 0 48 48" style="enable-background:new 0 0 48 48;" xml:space="preserve">
<style type="text/css">
	.st0{fill:#FF9900;}
	.st1{fill:#575756;}
</style>
<g id="Livello_1">
</g>
<g id="_x3C_Livello_x3E_">
	<g>
		<path class="st0" d="M28.91,20.29l13.56-10c0,0,10.3,11.68,0.17,27.46c-5.69-4.02-13.73-9.96-13.73-9.96S31.26,24.39,28.91,20.29z
			"/>
		<path class="st1" d="M24,0C10.77,0,0,10.77,0,24s10.77,24,24,24s24-10.77,24-24S37.23,0,24,0z M29.11,24
			c0,2.82-2.29,5.11-5.11,5.11c-2.82,0-5.11-2.29-5.11-5.11s2.29-5.11,5.11-5.11C26.82,18.89,29.11,21.18,29.11,24z M30.15,20.62
			l12.13-9.01c2.4,3.54,3.81,7.8,3.81,12.39c0,4.61-1.42,8.89-3.84,12.44L30.14,27.4c0.56-1.01,0.88-2.16,0.88-3.4
			C31.02,22.78,30.7,21.62,30.15,20.62z M24,46.09C11.82,46.09,1.91,36.18,1.91,24S11.82,1.91,24,1.91c6.91,0,13.09,3.19,17.14,8.17
			l-12.13,9.01c-1.27-1.3-3.05-2.11-5.01-2.11c-3.87,0-7.02,3.15-7.02,7.02s3.15,7.02,7.02,7.02c1.95,0,3.72-0.8,5-2.1l12.11,9.04
			C37.05,42.92,30.89,46.09,24,46.09z"/>
	</g>
</g>
</svg>
