<?xml version="1.0" encoding="UTF-8" standalone="no"?>
<!-- Created with Inkscape (http://www.inkscape.org/) -->

<svg
   class="h-100 w-100"
   version="1.1"
   id="svg2"
   xml:space="preserve"
   width="297.74319"
   height="53.137333"
   viewBox="0 0 297.74319 53.137333"
   sodipodi:docname="coolorange_white.svg"
   inkscape:version="1.3.2 (091e20e, 2023-11-25)"
   xmlns:inkscape="http://www.inkscape.org/namespaces/inkscape"
   xmlns:sodipodi="http://sodipodi.sourceforge.net/DTD/sodipodi-0.dtd"
   xmlns="http://www.w3.org/2000/svg"
   xmlns:svg="http://www.w3.org/2000/svg"><defs
     id="defs6"><clipPath
       clipPathUnits="userSpaceOnUse"
       id="clipPath16"><path
         d="M 0,65.813 H 250.524 V 0 H 0 Z"
         id="path14" /></clipPath></defs><sodipodi:namedview
     id="namedview4"
     pagecolor="#ffffff"
     bordercolor="#666666"
     borderopacity="1.0"
     inkscape:pageshadow="2"
     inkscape:pageopacity="0.0"
     inkscape:pagecheckerboard="0"
     inkscape:showpageshadow="2"
     inkscape:deskcolor="#d1d1d1"
     inkscape:zoom="2.2183503"
     inkscape:cx="148.7592"
     inkscape:cy="25.69477"
     inkscape:window-width="1312"
     inkscape:window-height="429"
     inkscape:window-x="0"
     inkscape:window-y="25"
     inkscape:window-maximized="0"
     inkscape:current-layer="g8" /><g
     id="g8"
     inkscape:groupmode="layer"
     inkscape:label="LogoCO-Full-neg-white-CMYK-full-noPayoff"
     transform="matrix(1.3333333,0,0,-1.3333333,-18.209333,69.602798)"><g
       id="g10"><g
         id="g12"
         clip-path="url(#clipPath16)"><g
           id="g18"
           transform="translate(69.1318,33.3482)"><path
             d="m 0,0 v 0.039 c 0,3.863 2.888,7.063 6.906,7.063 2.478,0 3.961,-0.878 5.326,-2.166 L 11.18,3.804 C 10.028,4.897 8.74,5.677 6.887,5.677 3.863,5.677 1.6,3.219 1.6,0.078 V 0.039 c 0,-3.161 2.283,-5.638 5.287,-5.638 1.873,0 3.102,0.722 4.41,1.97 l 1.014,-0.995 C 10.887,-6.067 9.326,-7.023 6.848,-7.023 2.907,-7.023 0,-3.921 0,0"
             style="fill:#ffffff;fill-opacity:1;fill-rule:nonzero;stroke:none"
             id="path20" /></g><g
           id="g22"
           transform="translate(97.8095,33.3482)"><path
             d="m 0,0 v 0.039 c 0,3.102 -2.263,5.638 -5.385,5.638 -3.121,0 -5.344,-2.497 -5.344,-5.599 V 0.039 c 0,-3.102 2.262,-5.638 5.383,-5.638 C -2.224,-5.599 0,-3.102 0,0 m -12.33,0 v 0.039 c 0,3.765 2.829,7.063 6.984,7.063 4.157,0 6.947,-3.258 6.947,-7.024 0.019,-0.019 0.019,-0.019 0,-0.039 0,-3.766 -2.83,-7.062 -6.986,-7.062 -4.155,0 -6.945,3.258 -6.945,7.023"
             style="fill:#ffffff;fill-opacity:1;fill-rule:nonzero;stroke:none"
             id="path24" /></g><g
           id="g26"
           transform="translate(116.7334,33.3482)"><path
             d="m 0,0 v 0.039 c 0,3.102 -2.264,5.638 -5.385,5.638 -3.122,0 -5.345,-2.497 -5.345,-5.599 V 0.039 c 0,-3.102 2.262,-5.638 5.384,-5.638 C -2.225,-5.599 0,-3.102 0,0 m -12.33,0 v 0.039 c 0,3.765 2.829,7.063 6.984,7.063 4.156,0 6.946,-3.258 6.946,-7.024 0.019,-0.019 0.019,-0.019 0,-0.039 0,-3.766 -2.829,-7.062 -6.985,-7.062 -4.156,0 -6.945,3.258 -6.945,7.023"
             style="fill:#ffffff;fill-opacity:1;fill-rule:nonzero;stroke:none"
             id="path28" /></g><g
           id="g30"
           transform="translate(123.9316,40.2159)"><path
             d="m 0,0 h 1.541 v -12.233 h 7.687 v -1.424 H 0 Z"
             style="fill:#ffffff;fill-opacity:1;fill-rule:nonzero;stroke:none"
             id="path32" /></g><g
           id="g34"
           transform="translate(148.8242,33.3482)"><path
             d="m 0,0 v 0.039 c 0,2.341 -1.717,4.292 -4.136,4.292 -2.419,0 -4.096,-1.912 -4.096,-4.253 V 0.039 c 0,-2.341 1.716,-4.292 4.135,-4.292 C -1.678,-4.253 0,-2.341 0,0 m -11.374,0 v 0.039 c 0,3.882 3.063,7.063 7.277,7.063 4.214,0 7.239,-3.142 7.239,-7.024 V 0.039 c 0,-3.882 -3.064,-7.062 -7.278,-7.062 -4.214,0 -7.238,3.141 -7.238,7.023"
             style="fill:#ffffff;fill-opacity:1;fill-rule:nonzero;stroke:none"
             id="path36" /></g><g
           id="g38"
           transform="translate(163.0263,33.5826)"><path
             d="M 0,0 C 1.464,0 2.303,0.78 2.303,1.931 V 1.97 c 0,1.288 -0.898,1.951 -2.362,1.951 H -3.043 V 0 Z m -6.048,6.633 h 6.243 c 1.737,0 3.083,-0.487 3.981,-1.385 0.761,-0.761 1.17,-1.834 1.17,-3.122 V 2.087 c 0,-2.204 -1.19,-3.589 -2.926,-4.233 L 5.756,-7.024 H 2.244 l -2.927,4.371 h -0.039 -2.321 v -4.371 h -3.005 z"
             style="fill:#ffffff;fill-opacity:1;fill-rule:nonzero;stroke:none"
             id="path40" /></g><g
           id="g42"
           transform="translate(181.2675,32.2755)"><path
             d="M 0,0 -1.814,4.429 -3.629,0 Z m -3.161,8.038 h 2.77 L 5.463,-5.717 H 2.321 l -1.249,3.063 h -5.774 l -1.249,-3.063 h -3.063 z"
             style="fill:#ffffff;fill-opacity:1;fill-rule:nonzero;stroke:none"
             id="path44" /></g><g
           id="g46"
           transform="translate(191.1767,40.2159)"><path
             d="M 0,0 H 2.771 L 9.17,-8.409 V 0 h 2.966 V -13.657 H 9.58 l -6.614,8.682 v -8.682 H 0 Z"
             style="fill:#ffffff;fill-opacity:1;fill-rule:nonzero;stroke:none"
             id="path48" /></g><g
           id="g50"
           transform="translate(208.3252,33.3482)"><path
             d="m 0,0 v 0.039 c 0,3.882 3.024,7.063 7.16,7.063 2.458,0 3.942,-0.664 5.365,-1.873 L 10.633,2.946 C 9.579,3.824 8.643,4.331 7.062,4.331 4.877,4.331 3.142,2.4 3.142,0.078 V 0.039 c 0,-2.497 1.716,-4.331 4.135,-4.331 1.093,0 2.068,0.273 2.829,0.819 v 1.951 H 7.082 v 2.595 h 5.931 V -4.858 C 11.608,-6.048 9.677,-7.023 7.18,-7.023 2.927,-7.023 0,-4.039 0,0"
             style="fill:#ffffff;fill-opacity:1;fill-rule:nonzero;stroke:none"
             id="path52" /></g><g
           id="g54"
           transform="translate(226.5654,40.2159)"><path
             d="M 0,0 H 10.302 V -2.673 H 2.985 v -2.77 H 9.424 V -8.116 H 2.985 v -2.868 h 7.414 v -2.673 H 0 Z"
             style="fill:#ffffff;fill-opacity:1;fill-rule:nonzero;stroke:none"
             id="path56" /></g><g
           id="g58"
           transform="translate(33.583,13.9341)"><path
             d="m 0,0 c -10.113,0 -18.341,8.228 -18.341,18.341 0,10.114 8.228,18.341 18.341,18.341 5.737,0 10.866,-2.648 14.232,-6.786 L 4.16,22.417 c -1.058,1.08 -2.532,1.752 -4.16,1.752 -3.213,0 -5.827,-2.614 -5.827,-5.828 0,-3.214 2.614,-5.828 5.827,-5.828 1.622,0 3.091,0.667 4.148,1.74 L 14.199,6.745 C 10.833,2.631 5.719,0 0,0 M 4.243,18.341 C 4.243,16.002 2.34,14.099 0,14.099 c -2.339,0 -4.242,1.903 -4.242,4.242 0,2.34 1.903,4.243 4.242,4.243 2.34,0 4.243,-1.903 4.243,-4.243 M 0,38.268 c -10.987,0 -19.926,-8.939 -19.926,-19.927 0,-10.987 8.939,-19.926 19.926,-19.926 10.987,0 19.927,8.939 19.927,19.926 0,10.988 -8.94,19.927 -19.927,19.927"
             style="fill:#ffffff;fill-opacity:1;fill-rule:nonzero;stroke:none"
             id="path60" /></g></g></g></g></svg>
